<svg xmlns="http://www.w3.org/2000/svg" width="224.388" height="52.854" viewBox="0 0 224.388 52.854">
  <g id="Group_4687" data-name="Group 4687" transform="translate(0 -0.001)">
    <g id="Group_4688" data-name="Group 4688" transform="translate(0 0.001)">
      <path id="Path_11794" data-name="Path 11794" d="M126.141,41.9c-3.215,0-6.434-.016-9.645.015-.585.006-.723-.151-.72-.726q.034-9.387,0-18.774c0-.571.13-.733.721-.73q9.526.035,19.052,0c.58,0,.836.1.792.752a18.5,18.5,0,0,0,0,2.636c.055.752-.124,1-.951.992-4.407-.048-8.815-.011-13.223-.036-.6,0-.829.132-.766.752a8.545,8.545,0,0,1,0,1.7c-.065.654.106.864.821.857,4.178-.042,8.349-.007,12.522-.035.631,0,.861.13.818.794a23.141,23.141,0,0,0,0,2.869c.037.613-.186.713-.745.71-4.178-.023-8.349.012-12.522-.034-.784-.009-.961.222-.9.941a14.42,14.42,0,0,1,0,2.248c-.039.572.119.732.714.728,4.512-.028,9.025,0,13.537-.033.716-.005.919.184.875.884a21.02,21.02,0,0,0,0,2.791c.041.618-.191.706-.74.7-3.215-.025-6.429-.013-9.645-.013" transform="translate(-19.032 -3.565)" fill="#fff"/>
      <path id="Path_11795" data-name="Path 11795" d="M263.619,31.833c0,3.129-.013,6.26.013,9.389,0,.526-.1.712-.668.694-1.373-.044-2.75-.051-4.122,0-.619.024-.713-.193-.705-.743.03-2.3-.005-4.6.025-6.905.008-.579-.1-.8-.752-.791q-6.223.049-12.451,0c-.6,0-.731.167-.724.739.033,2.327,0,4.655.024,6.983.006.508-.077.732-.663.713-1.4-.045-2.8-.033-4.2,0-.487.01-.669-.094-.669-.628q.029-9.467,0-18.933c0-.491.107-.677.639-.663q2.138.055,4.278,0c.506-.013.606.179.6.627-.016,1.991.013,3.983-.017,5.975-.008.546.089.752.707.747q6.267-.046,12.526,0c.544,0,.7-.141.688-.686-.033-2.016,0-4.035-.024-6.052-.007-.48.129-.617.608-.6,1.4.031,2.8.037,4.2,0,.542-.016.693.132.687.679-.027,3.155-.013,6.311-.013,9.467" transform="translate(-39.244 -3.565)" fill="#fff"/>
      <path id="Path_11796" data-name="Path 11796" d="M84.094,35.842a21.433,21.433,0,0,0,5.065,1.811,20.564,20.564,0,0,0,6.911.449,6.516,6.516,0,0,0,3.014-.878c.878-.607.856-1.421-.064-1.95a10.953,10.953,0,0,0-3.282-1.061c-2.063-.444-4.15-.782-6.172-1.406a9.147,9.147,0,0,1-4.758-2.824,4.7,4.7,0,0,1-.892-3.384,4.816,4.816,0,0,1,2.05-3.587,9.024,9.024,0,0,1,3.978-1.538,24.089,24.089,0,0,1,5.919-.286,28.814,28.814,0,0,1,7.448,1.363c.308.1.418.233.418.531-.005,1.241-.017,2.483.005,3.723.009.521-.3.5-.593.358a20.844,20.844,0,0,0-5.569-1.609,17.214,17.214,0,0,0-6.864.12,1.95,1.95,0,0,0-.487.2c-.353.2-.78.371-.8.843-.017.5.418.73.78.96a8.661,8.661,0,0,0,2.777.93,61.455,61.455,0,0,1,7.391,1.869,8.507,8.507,0,0,1,4.256,2.813,5.9,5.9,0,0,1-.521,6.233,9.62,9.62,0,0,1-5.55,2.581,27.18,27.18,0,0,1-6.053.273,26.773,26.773,0,0,1-8-1.5.5.5,0,0,1-.4-.488c-.012-1.489-.006-2.978-.006-4.553" transform="translate(-13.789 -3.472)" fill="#fff"/>
      <path id="Path_11797" data-name="Path 11797" d="M229.392,41.9c-1.949,0-3.815-.011-5.682.009a.707.707,0,0,1-.752-.491c-.391-.9-.933-1.732-1.248-2.674a.845.845,0,0,0-.942-.662q-4.977.053-9.956,0a.946.946,0,0,0-.994.646c-.418.9-.9,1.782-1.319,2.687a.714.714,0,0,1-.756.487c-1.867-.021-3.733-.01-5.71-.01,1.136-2.148,2.251-4.237,3.349-6.333,1.3-2.482,2.582-4.974,3.883-7.456,1.041-1.987,2.112-3.96,3.137-5.956a.739.739,0,0,1,.776-.462c1.711.013,3.426.032,5.133-.01.509-.013.662.267.841.614,1.451,2.8,2.9,5.6,4.362,8.393q2.811,5.362,5.651,10.709c.07.133.127.273.231.5M212.15,34.065h7.263c-1.151-2.312-2.256-4.552-3.382-6.785-.272-.541-.449-.167-.585.1q-1.1,2.2-2.193,4.407c-.366.741-.723,1.487-1.106,2.275" transform="translate(-33.212 -3.563)" fill="#fff"/>
      <path id="Path_11798" data-name="Path 11798" d="M156.948,41.9c-3.111,0-6.223-.013-9.333.013-.551,0-.746-.09-.744-.7q.039-9.426,0-18.851c0-.562.171-.686.7-.668,1.373.036,2.748.041,4.121,0,.559-.018.678.157.676.69-.022,4.758,0,9.516-.03,14.274,0,.668.186.794.816.79,4.407-.028,8.815,0,13.223-.028.594,0,.811.124.776.752-.057,1.032-.042,2.069,0,3.1.018.5-.124.648-.638.643-3.19-.024-6.377-.013-9.567-.013" transform="translate(-24.144 -3.566)" fill="#fff"/>
      <path id="Path_11799" data-name="Path 11799" d="M186.386,41.9c-3.138,0-6.275-.014-9.413.013-.553,0-.679-.155-.678-.689q.029-9.427,0-18.856c0-.546.14-.7.687-.684,1.374.039,2.75.048,4.122,0,.609-.023.715.183.713.74-.022,4.733,0,9.466-.028,14.2,0,.637.15.821.8.817,4.408-.029,8.817,0,13.224-.028.592,0,.821.118.785.752-.057,1.032-.043,2.069,0,3.1.019.51-.137.645-.644.642-3.19-.023-6.379-.012-9.569-.012" transform="translate(-28.981 -3.565)" fill="#fff"/>
      <path id="Path_11800" data-name="Path 11800" d="M5,17.035c.435-.656.8-1.39,1.651-1.615a19.174,19.174,0,0,1,1.954-.484,10.146,10.146,0,0,1,4.829.292,6.182,6.182,0,0,1,4.1,4.277c.668,2.113,1.282,4.242,1.914,6.366.8,2.691,1.605,5.381,2.385,8.079.13.449.354.591.785.5q4.512-1,9.019-2c3.184-.707,6.371-1.395,9.546-2.136A4.564,4.564,0,0,0,44.7,27.5c.4-1.05-.023-1.618-1.112-1.833a11.341,11.341,0,0,0-5.21.542c-2.631.706-5.243,1.491-7.912,2.041-2.45.506-4.832.437-6.955-1.192a7.044,7.044,0,0,1-2.547-4.129,7.752,7.752,0,0,1,.495-5.181,5.753,5.753,0,0,1,.958-1.485,26.609,26.609,0,0,1,9.2-6.126,59.794,59.794,0,0,1,5.622-2.161,61.021,61.021,0,0,1,8.43-2.072,48.234,48.234,0,0,1,5.889-.68c1.929-.094,3.856-.239,5.788-.226,1.2.008,1.726.655,1.387,1.812-.566,1.934-1.161,3.858-1.771,5.778a1.8,1.8,0,0,1-1.693,1.3c-1.3.1-2.605.135-3.9.267-1.513.155-3.029.295-4.542.455q-2.145.226-4.271.556c-1.847.288-3.677.681-5.493,1.149a34.8,34.8,0,0,0-7.576,2.963A3.727,3.727,0,0,0,27.966,20.5a1.042,1.042,0,0,0,.855,1.675,7.679,7.679,0,0,0,3.136-.535,45.671,45.671,0,0,1,6.827-1.682,16.706,16.706,0,0,1,3.457-.267c1.826.06,3.687.167,5.24,1.311a6.77,6.77,0,0,1,3.012,5.033c.251,3.063-1.106,5.358-3.32,7.3-1.873,1.643-4.187,2.215-6.522,2.742-2.875.648-5.744,1.321-8.614,1.987-2.515.585-5.032,1.152-7.541,1.766-1.817.445-3.647.841-5.477,1.229a.933.933,0,0,1-1.078-.492,19.338,19.338,0,0,1-1.187-3.5c-.465-1.377-.811-2.794-1.228-4.188-.858-2.862-1.736-5.718-2.59-8.579-.272-.907-.52-1.821-.766-2.734-.221-.818-1.176-1.177-2.251-.994a6.1,6.1,0,0,1-2.365.3A3.586,3.586,0,0,1,5,18.663Z" transform="translate(-0.822 -0.823)" fill="#df0b19"/>
      <path id="Path_11801" data-name="Path 11801" d="M17.963,44.445a5.123,5.123,0,0,1-4.6-2.872l-.053-.112a23.6,23.6,0,0,1-1.4-4.059c-.3-.9-.546-1.789-.785-2.647-.138-.5-.277-1-.426-1.495q-.6-2-1.208-4-.7-2.289-1.383-4.579c-.045-.154-.091-.307-.136-.46a10.409,10.409,0,0,1-1.532.008L6.118,24.2,5.8,24.13a7.751,7.751,0,0,1-5.527-4.8L0,18.613v-3.66L.824,13.7a6.64,6.64,0,0,1,3.847-3.123A23.273,23.273,0,0,1,7,10.01a14.415,14.415,0,0,1,6.855.406,10.4,10.4,0,0,1,4.3,2.636c.1-.13.213-.257.323-.382l.135-.145A30.594,30.594,0,0,1,29.18,5.467c1.934-.855,3.932-1.621,5.942-2.28A65.445,65.445,0,0,1,44.147.969,52.431,52.431,0,0,1,50.519.234c.475-.023.933-.048,1.39-.074,1.5-.084,3.065-.171,4.648-.159a5.565,5.565,0,0,1,4.607,2.172,5.517,5.517,0,0,1,.765,4.989c-.511,1.747-1.08,3.6-1.787,5.832a5.951,5.951,0,0,1-5.444,4.25c-.551.043-1.1.074-1.654.105-.69.039-1.38.077-2.067.147l-.846.086a10.879,10.879,0,0,1,3.7,7.249c.34,4.149-1.253,7.776-4.727,10.822-2.749,2.411-5.991,3.142-8.357,3.676-2.232.5-4.46,1.021-6.687,1.539l-3.94.913c-1.818.419-3.637.838-5.452,1.284-1.909.467-3.858.887-5.542,1.244a5.08,5.08,0,0,1-1.163.135M52.8,8.48l-.432.023q-.711.04-1.423.076a44.058,44.058,0,0,0-5.36.62c-1.738.3-3.461.677-5.157,1.131.223-.038.445-.074.666-.108,1.483-.23,2.987-.426,4.478-.583.836-.089,1.673-.17,2.509-.252q1.022-.1,2.042-.2c.849-.087,1.664-.132,2.451-.176l.064,0c.054-.177.109-.352.163-.524" transform="translate(0 -0.001)" fill="#fff"/>
      <path id="Path_11802" data-name="Path 11802" d="M24.543,56.89c-.527-.363-1.177-.518-1.592-1.08a3.418,3.418,0,0,1-.191-3.927c.956-1.717,2.005-2.014,3.75-1.877,1.8.142,2.482,2.28,2.285,3.56A4.135,4.135,0,0,1,25.8,56.886Z" transform="translate(-3.654 -8.216)" fill="#fa8912"/>
      <path id="Path_11803" data-name="Path 11803" d="M22.427,60.248,21.4,59.539c-.05-.028-.1-.052-.151-.078A6.731,6.731,0,0,1,18.8,57.515a7.616,7.616,0,0,1-.462-8.582,7.364,7.364,0,0,1,7.673-3.917,6.371,6.371,0,0,1,4.531,2.44,7.9,7.9,0,0,1,1.559,5.92,8.184,8.184,0,0,1-5.638,6.591l-.714.272Z" transform="translate(-2.833 -7.394)" fill="#fff"/>
      <path id="Path_11804" data-name="Path 11804" d="M53.94,47.046a3.844,3.844,0,0,1-2.61,3.7,2.894,2.894,0,0,1-3.782-2.059,3.853,3.853,0,0,1,2.34-4.564c2.037-.626,4.011.315,4.051,2.925" transform="translate(-7.796 -7.222)" fill="#fa8912"/>
      <path id="Path_11805" data-name="Path 11805" d="M49.513,54.257a7.132,7.132,0,0,1-6.729-5.011l-.1-.333A8.028,8.028,0,0,1,47.558,39.4l.282-.1a7.394,7.394,0,0,1,6.584.951,7.207,7.207,0,0,1,2.87,5.911h0a8,8,0,0,1-5.448,7.712l-.088.028a7.465,7.465,0,0,1-2.245.352m.135-7.156a1.132,1.132,0,0,0,.666.184l-.1-.331Zm.807-.211.116.3a.325.325,0,0,0,.2-.385Zm-1.5-.607a1.5,1.5,0,0,0,.445.638l.087-.03-.207-.612Zm.413-.006.186.59.571-.2L50,46.27Zm.85-.012.125.323.328-.114a.694.694,0,0,0-.182-.213Zm-1.273-.019a.289.289,0,0,0,.01.036l.325,0-.108-.317a.334.334,0,0,0-.227.285m.547-.346a.794.794,0,0,0-.233.032l.109.344L50,46.269l-.094-.3a1.5,1.5,0,0,0-.414-.065m.642.149.083.216.272,0a1.515,1.515,0,0,0-.355-.212" transform="translate(-6.974 -6.4)" fill="#fff"/>
      <path id="Path_11806" data-name="Path 11806" d="M5,17.035c.435-.656.8-1.39,1.651-1.615a19.174,19.174,0,0,1,1.954-.484,10.146,10.146,0,0,1,4.829.292,6.182,6.182,0,0,1,4.1,4.277c.668,2.113,1.282,4.242,1.914,6.366.8,2.691,1.605,5.381,2.385,8.079.13.449.354.591.785.5q4.512-1,9.019-2c3.184-.707,6.371-1.395,9.546-2.136A4.564,4.564,0,0,0,44.7,27.5c.4-1.05-.023-1.618-1.112-1.833a11.341,11.341,0,0,0-5.21.542c-2.631.706-5.243,1.491-7.912,2.041-2.45.506-4.832.437-6.955-1.192a7.044,7.044,0,0,1-2.547-4.129,7.752,7.752,0,0,1,.495-5.181,5.753,5.753,0,0,1,.958-1.485,26.609,26.609,0,0,1,9.2-6.126,59.794,59.794,0,0,1,5.622-2.161,61.021,61.021,0,0,1,8.43-2.072,48.234,48.234,0,0,1,5.889-.68c1.929-.094,3.856-.239,5.788-.226,1.2.008,1.726.655,1.387,1.812-.566,1.934-1.161,3.858-1.771,5.778a1.8,1.8,0,0,1-1.693,1.3c-1.3.1-2.605.135-3.9.267-1.513.155-3.029.295-4.542.455q-2.145.226-4.271.556c-1.847.288-3.677.681-5.493,1.149a34.8,34.8,0,0,0-7.576,2.963A3.727,3.727,0,0,0,27.966,20.5a1.042,1.042,0,0,0,.855,1.675,7.679,7.679,0,0,0,3.136-.535,45.671,45.671,0,0,1,6.827-1.682,16.706,16.706,0,0,1,3.457-.267c1.826.06,3.687.167,5.24,1.311a6.77,6.77,0,0,1,3.012,5.033c.251,3.063-1.106,5.358-3.32,7.3-1.873,1.643-4.187,2.215-6.522,2.742-2.875.648-5.744,1.321-8.614,1.987-2.515.585-5.032,1.152-7.541,1.766-1.817.445-3.647.841-5.477,1.229a.933.933,0,0,1-1.078-.492,19.338,19.338,0,0,1-1.187-3.5c-.465-1.377-.811-2.794-1.228-4.188-.858-2.862-1.736-5.718-2.59-8.579-.272-.907-.52-1.821-.766-2.734-.221-.818-1.176-1.177-2.251-.994a6.1,6.1,0,0,1-2.365.3A3.586,3.586,0,0,1,5,18.663Z" transform="translate(-0.822 -0.823)" fill="#ea251b"/>
      <path id="Path_11807" data-name="Path 11807" d="M24.543,56.89c-.527-.363-1.177-.518-1.592-1.08a3.418,3.418,0,0,1-.191-3.927c.956-1.717,2.005-2.014,3.75-1.877,1.8.142,2.482,2.28,2.285,3.56A4.135,4.135,0,0,1,25.8,56.886Z" transform="translate(-3.654 -8.216)" fill="#fa8912"/>
      <path id="Path_11808" data-name="Path 11808" d="M53.94,47.046a3.844,3.844,0,0,1-2.61,3.7,2.894,2.894,0,0,1-3.782-2.059,3.853,3.853,0,0,1,2.34-4.564c2.037-.626,4.011.315,4.051,2.925" transform="translate(-7.796 -7.222)" fill="#fa8912"/>
    </g>
  </g>
</svg>
